<mxfile modified="2021-01-19T09:04:16.234Z" host="app.diagrams.net" agent="5.0 (Windows NT 10.0; Win64; x64) AppleWebKit/537.36 (KHTML, like Gecko) Chrome/87.0.4280.141 Safari/537.36" etag="2dPscsx7vjBVtR1FLh-G" version="14.1.9" type="github" pages="3">
  <diagram id="pmYJ5B--xqqTepk768Oj" name="Two Portals">
    <mxGraphModel dx="1422" dy="774" grid="1" gridSize="10" guides="1" tooltips="1" connect="1" arrows="1" fold="1" page="1" pageScale="1" pageWidth="827" pageHeight="1169" math="0" shadow="0">
      <root>
        <mxCell id="UBGC7QK-bI1VNJSiyzzY-0" />
        <mxCell id="UBGC7QK-bI1VNJSiyzzY-1" parent="UBGC7QK-bI1VNJSiyzzY-0" />
        <mxCell id="UCSqxcAwAP45McFxUChY-0" value="&lt;font style=&quot;font-size: 14px&quot;&gt;Franchise Portal&lt;/font&gt;" style="rounded=1;whiteSpace=wrap;html=1;fillColor=#ffcc99;strokeColor=none;verticalAlign=top;fontStyle=1" parent="UBGC7QK-bI1VNJSiyzzY-1" vertex="1">
          <mxGeometry x="70" y="160" width="250" height="120" as="geometry" />
        </mxCell>
        <mxCell id="UCSqxcAwAP45McFxUChY-1" value="&lt;font style=&quot;font-size: 14px&quot;&gt;SAP C4&lt;/font&gt;" style="rounded=1;whiteSpace=wrap;html=1;fillColor=#ffcc99;strokeColor=none;verticalAlign=top;fontStyle=1" parent="UBGC7QK-bI1VNJSiyzzY-1" vertex="1">
          <mxGeometry x="470" y="160" width="250" height="120" as="geometry" />
        </mxCell>
        <mxCell id="RQhlTBZK-pdl2Mfov-Y_-0" value="Internal Salespeople" style="shape=umlActor;verticalLabelPosition=bottom;labelBackgroundColor=#ffffff;verticalAlign=top;html=1;outlineConnect=0;" parent="UBGC7QK-bI1VNJSiyzzY-1" vertex="1">
          <mxGeometry x="590" y="60" width="30" height="60" as="geometry" />
        </mxCell>
        <mxCell id="RQhlTBZK-pdl2Mfov-Y_-1" value="&lt;font style=&quot;font-size: 14px&quot;&gt;SAP S/4HANA&lt;/font&gt;" style="rounded=1;whiteSpace=wrap;html=1;fillColor=#ffcc99;strokeColor=none;verticalAlign=top;fontStyle=1" parent="UBGC7QK-bI1VNJSiyzzY-1" vertex="1">
          <mxGeometry x="70" y="440" width="650" height="120" as="geometry" />
        </mxCell>
        <mxCell id="RQhlTBZK-pdl2Mfov-Y_-2" value="Franchise/Partner Salespeople" style="shape=umlActor;verticalLabelPosition=bottom;labelBackgroundColor=#ffffff;verticalAlign=top;html=1;outlineConnect=0;" parent="UBGC7QK-bI1VNJSiyzzY-1" vertex="1">
          <mxGeometry x="210" y="60" width="30" height="60" as="geometry" />
        </mxCell>
        <mxCell id="RQhlTBZK-pdl2Mfov-Y_-3" value="" style="shape=flexArrow;endArrow=classic;startArrow=classic;html=1;exitX=0.192;exitY=0.014;exitDx=0;exitDy=0;exitPerimeter=0;entryX=0.5;entryY=1;entryDx=0;entryDy=0;" parent="UBGC7QK-bI1VNJSiyzzY-1" source="RQhlTBZK-pdl2Mfov-Y_-4" target="UCSqxcAwAP45McFxUChY-0" edge="1">
          <mxGeometry width="50" height="50" relative="1" as="geometry">
            <mxPoint x="-240" y="420" as="sourcePoint" />
            <mxPoint x="-190" y="370" as="targetPoint" />
          </mxGeometry>
        </mxCell>
        <mxCell id="RQhlTBZK-pdl2Mfov-Y_-4" value="&lt;font style=&quot;font-size: 14px&quot;&gt;Integration Layer&lt;/font&gt;" style="rounded=1;whiteSpace=wrap;html=1;fillColor=#ffcc99;strokeColor=none;verticalAlign=top;fontStyle=1" parent="UBGC7QK-bI1VNJSiyzzY-1" vertex="1">
          <mxGeometry x="70" y="330" width="650" height="60" as="geometry" />
        </mxCell>
        <mxCell id="RQhlTBZK-pdl2Mfov-Y_-5" value="" style="shape=flexArrow;endArrow=classic;startArrow=classic;html=1;exitX=0.192;exitY=0.014;exitDx=0;exitDy=0;exitPerimeter=0;entryX=0.5;entryY=1;entryDx=0;entryDy=0;" parent="UBGC7QK-bI1VNJSiyzzY-1" edge="1">
          <mxGeometry width="50" height="50" relative="1" as="geometry">
            <mxPoint x="590" y="330" as="sourcePoint" />
            <mxPoint x="590.2" y="279.02" as="targetPoint" />
          </mxGeometry>
        </mxCell>
        <mxCell id="RQhlTBZK-pdl2Mfov-Y_-6" value="" style="shape=flexArrow;endArrow=classic;startArrow=classic;html=1;exitX=0.192;exitY=0.014;exitDx=0;exitDy=0;exitPerimeter=0;entryX=0.5;entryY=1;entryDx=0;entryDy=0;" parent="UBGC7QK-bI1VNJSiyzzY-1" edge="1">
          <mxGeometry width="50" height="50" relative="1" as="geometry">
            <mxPoint x="394.5" y="440" as="sourcePoint" />
            <mxPoint x="394.70000000000005" y="389.02" as="targetPoint" />
          </mxGeometry>
        </mxCell>
      </root>
    </mxGraphModel>
  </diagram>
  <diagram name="One Portal- C4" id="F6AavgvRCe3GmfvqjR_4">
    <mxGraphModel dx="1422" dy="774" grid="1" gridSize="10" guides="1" tooltips="1" connect="1" arrows="1" fold="1" page="1" pageScale="1" pageWidth="827" pageHeight="1169" math="0" shadow="0">
      <root>
        <mxCell id="tYxPj1ca4lagmdfnkNXV-0" />
        <mxCell id="tYxPj1ca4lagmdfnkNXV-1" parent="tYxPj1ca4lagmdfnkNXV-0" />
        <mxCell id="tYxPj1ca4lagmdfnkNXV-3" value="&lt;font style=&quot;font-size: 14px&quot;&gt;SAP C4&lt;/font&gt;" style="rounded=1;whiteSpace=wrap;html=1;fillColor=#ffcc99;strokeColor=none;verticalAlign=top;fontStyle=1" parent="tYxPj1ca4lagmdfnkNXV-1" vertex="1">
          <mxGeometry x="80" y="160" width="640" height="120" as="geometry" />
        </mxCell>
        <mxCell id="tYxPj1ca4lagmdfnkNXV-4" value="Internal Salespeople" style="shape=umlActor;verticalLabelPosition=bottom;labelBackgroundColor=#ffffff;verticalAlign=top;html=1;outlineConnect=0;" parent="tYxPj1ca4lagmdfnkNXV-1" vertex="1">
          <mxGeometry x="590" y="60" width="30" height="60" as="geometry" />
        </mxCell>
        <mxCell id="tYxPj1ca4lagmdfnkNXV-5" value="&lt;font style=&quot;font-size: 14px&quot;&gt;SAP S/4HANA&lt;/font&gt;" style="rounded=1;whiteSpace=wrap;html=1;fillColor=#ffcc99;strokeColor=none;verticalAlign=top;fontStyle=1" parent="tYxPj1ca4lagmdfnkNXV-1" vertex="1">
          <mxGeometry x="70" y="440" width="650" height="120" as="geometry" />
        </mxCell>
        <mxCell id="tYxPj1ca4lagmdfnkNXV-6" value="Franchise/Partner Salespeople" style="shape=umlActor;verticalLabelPosition=bottom;labelBackgroundColor=#ffffff;verticalAlign=top;html=1;outlineConnect=0;" parent="tYxPj1ca4lagmdfnkNXV-1" vertex="1">
          <mxGeometry x="210" y="60" width="30" height="60" as="geometry" />
        </mxCell>
        <mxCell id="tYxPj1ca4lagmdfnkNXV-8" value="&lt;font style=&quot;font-size: 14px&quot;&gt;Integration Layer&lt;/font&gt;" style="rounded=1;whiteSpace=wrap;html=1;fillColor=#ffcc99;strokeColor=none;verticalAlign=top;fontStyle=1" parent="tYxPj1ca4lagmdfnkNXV-1" vertex="1">
          <mxGeometry x="70" y="330" width="650" height="60" as="geometry" />
        </mxCell>
        <mxCell id="tYxPj1ca4lagmdfnkNXV-9" value="" style="shape=flexArrow;endArrow=classic;startArrow=classic;html=1;exitX=0.192;exitY=0.014;exitDx=0;exitDy=0;exitPerimeter=0;entryX=0.5;entryY=1;entryDx=0;entryDy=0;" parent="tYxPj1ca4lagmdfnkNXV-1" edge="1">
          <mxGeometry width="50" height="50" relative="1" as="geometry">
            <mxPoint x="394.5" y="330.98" as="sourcePoint" />
            <mxPoint x="394.70000000000005" y="280" as="targetPoint" />
          </mxGeometry>
        </mxCell>
        <mxCell id="tYxPj1ca4lagmdfnkNXV-10" value="" style="shape=flexArrow;endArrow=classic;startArrow=classic;html=1;exitX=0.192;exitY=0.014;exitDx=0;exitDy=0;exitPerimeter=0;entryX=0.5;entryY=1;entryDx=0;entryDy=0;" parent="tYxPj1ca4lagmdfnkNXV-1" edge="1">
          <mxGeometry width="50" height="50" relative="1" as="geometry">
            <mxPoint x="394.5" y="440" as="sourcePoint" />
            <mxPoint x="394.70000000000005" y="389.02" as="targetPoint" />
          </mxGeometry>
        </mxCell>
      </root>
    </mxGraphModel>
  </diagram>
  <diagram name="One Portal- Custom" id="P6pv1fbe___gl5V0PUxG">
    <mxGraphModel dx="1422" dy="774" grid="1" gridSize="10" guides="1" tooltips="1" connect="1" arrows="1" fold="1" page="1" pageScale="1" pageWidth="827" pageHeight="1169" math="0" shadow="0">
      <root>
        <mxCell id="pKR54JzbV57AIMgv6Uvy-0" />
        <mxCell id="pKR54JzbV57AIMgv6Uvy-1" parent="pKR54JzbV57AIMgv6Uvy-0" />
        <mxCell id="pKR54JzbV57AIMgv6Uvy-2" value="&lt;font style=&quot;font-size: 14px&quot;&gt;Sales Portal&lt;/font&gt;" style="rounded=1;whiteSpace=wrap;html=1;fillColor=#ffcc99;strokeColor=none;verticalAlign=top;fontStyle=1" parent="pKR54JzbV57AIMgv6Uvy-1" vertex="1">
          <mxGeometry x="70" y="160" width="650" height="120" as="geometry" />
        </mxCell>
        <mxCell id="pKR54JzbV57AIMgv6Uvy-4" value="Internal Salespeople" style="shape=umlActor;verticalLabelPosition=bottom;labelBackgroundColor=#ffffff;verticalAlign=top;html=1;outlineConnect=0;" parent="pKR54JzbV57AIMgv6Uvy-1" vertex="1">
          <mxGeometry x="590" y="60" width="30" height="60" as="geometry" />
        </mxCell>
        <mxCell id="pKR54JzbV57AIMgv6Uvy-5" value="&lt;font style=&quot;font-size: 14px&quot;&gt;SAP S/4HANA&lt;/font&gt;" style="rounded=1;whiteSpace=wrap;html=1;fillColor=#ffcc99;strokeColor=none;verticalAlign=top;fontStyle=1" parent="pKR54JzbV57AIMgv6Uvy-1" vertex="1">
          <mxGeometry x="70" y="440" width="650" height="120" as="geometry" />
        </mxCell>
        <mxCell id="pKR54JzbV57AIMgv6Uvy-6" value="Franchise/Partner Salespeople" style="shape=umlActor;verticalLabelPosition=bottom;labelBackgroundColor=#ffffff;verticalAlign=top;html=1;outlineConnect=0;" parent="pKR54JzbV57AIMgv6Uvy-1" vertex="1">
          <mxGeometry x="210" y="60" width="30" height="60" as="geometry" />
        </mxCell>
        <mxCell id="pKR54JzbV57AIMgv6Uvy-7" value="" style="shape=flexArrow;endArrow=classic;startArrow=classic;html=1;exitX=0.5;exitY=0;exitDx=0;exitDy=0;entryX=0.5;entryY=1;entryDx=0;entryDy=0;" parent="pKR54JzbV57AIMgv6Uvy-1" source="pKR54JzbV57AIMgv6Uvy-8" target="pKR54JzbV57AIMgv6Uvy-2" edge="1">
          <mxGeometry width="50" height="50" relative="1" as="geometry">
            <mxPoint x="-240" y="420" as="sourcePoint" />
            <mxPoint x="-190" y="370" as="targetPoint" />
          </mxGeometry>
        </mxCell>
        <mxCell id="pKR54JzbV57AIMgv6Uvy-8" value="&lt;font style=&quot;font-size: 14px&quot;&gt;Integration Layer&lt;/font&gt;" style="rounded=1;whiteSpace=wrap;html=1;fillColor=#ffcc99;strokeColor=none;verticalAlign=top;fontStyle=1" parent="pKR54JzbV57AIMgv6Uvy-1" vertex="1">
          <mxGeometry x="70" y="330" width="650" height="60" as="geometry" />
        </mxCell>
        <mxCell id="pKR54JzbV57AIMgv6Uvy-10" value="" style="shape=flexArrow;endArrow=classic;startArrow=classic;html=1;exitX=0.192;exitY=0.014;exitDx=0;exitDy=0;exitPerimeter=0;entryX=0.5;entryY=1;entryDx=0;entryDy=0;" parent="pKR54JzbV57AIMgv6Uvy-1" edge="1">
          <mxGeometry width="50" height="50" relative="1" as="geometry">
            <mxPoint x="394.5" y="440" as="sourcePoint" />
            <mxPoint x="394.70000000000005" y="389.02" as="targetPoint" />
          </mxGeometry>
        </mxCell>
      </root>
    </mxGraphModel>
  </diagram>
</mxfile>
